<?xml version="1.0" encoding="UTF-8" standalone="no"?>
<!DOCTYPE svg PUBLIC "-//W3C//DTD SVG 1.1//EN"
 "http://www.w3.org/Graphics/SVG/1.1/DTD/svg11.dtd">
<!-- Generated by graphviz version 2.42.3 (20191010.1750)
 -->
<!-- Title: %3 Pages: 1 -->
<svg width="851pt" height="332pt"
 viewBox="0.00 0.00 851.06 332.00" xmlns="http://www.w3.org/2000/svg" xmlns:xlink="http://www.w3.org/1999/xlink">
<g id="graph0" class="graph" transform="scale(1 1) rotate(0) translate(4 328)">
<title>%3</title>
<polygon fill="white" stroke="transparent" points="-4,4 -4,-328 847.06,-328 847.06,4 -4,4"/>
<!-- 0 -->
<g id="node1" class="node">
<title>0</title>
<ellipse fill="none" stroke="black" cx="524.04" cy="-162" rx="48.19" ry="18"/>
<text text-anchor="middle" x="524.04" y="-158.3" font-family="Times,serif" font-size="14.00">Normalize</text>
</g>
<!-- 6 -->
<g id="node8" class="node">
<title>6</title>
<ellipse fill="none" stroke="black" cx="401.04" cy="-90" rx="27" ry="18"/>
<text text-anchor="middle" x="401.04" y="-86.3" font-family="Times,serif" font-size="14.00">+</text>
</g>
<!-- 0&#45;&gt;6 -->
<g id="edge6" class="edge">
<title>0&#45;&gt;6</title>
<path fill="none" stroke="black" d="M498.85,-146.67C478.77,-135.24 450.64,-119.23 429.7,-107.31"/>
<polygon fill="black" stroke="black" points="431.34,-104.22 420.92,-102.32 427.88,-110.31 431.34,-104.22"/>
</g>
<!-- 3 -->
<g id="node2" class="node">
<title>3</title>
<ellipse fill="none" stroke="black" cx="546.04" cy="-234" rx="51.99" ry="18"/>
<text text-anchor="middle" x="546.04" y="-230.3" font-family="Times,serif" font-size="14.00">FillMissing</text>
</g>
<!-- 3&#45;&gt;0 -->
<g id="edge1" class="edge">
<title>3&#45;&gt;0</title>
<path fill="none" stroke="black" d="M540.71,-216.05C538.26,-208.26 535.29,-198.82 532.55,-190.08"/>
<polygon fill="black" stroke="black" points="535.8,-188.77 529.47,-180.28 529.13,-190.86 535.8,-188.77"/>
</g>
<!-- 1 -->
<g id="node3" class="node">
<title>1</title>
<ellipse fill="none" stroke="black" cx="401.04" cy="-234" rx="75.29" ry="18"/>
<text text-anchor="middle" x="401.04" y="-230.3" font-family="Times,serif" font-size="14.00">input cols=[Sales]</text>
</g>
<!-- 4 -->
<g id="node7" class="node">
<title>4</title>
<ellipse fill="none" stroke="black" cx="401.04" cy="-162" rx="36" ry="18"/>
<text text-anchor="middle" x="401.04" y="-158.3" font-family="Times,serif" font-size="14.00">LogOp</text>
</g>
<!-- 1&#45;&gt;4 -->
<g id="edge4" class="edge">
<title>1&#45;&gt;4</title>
<path fill="none" stroke="black" d="M401.04,-215.7C401.04,-207.98 401.04,-198.71 401.04,-190.11"/>
<polygon fill="black" stroke="black" points="404.54,-190.1 401.04,-180.1 397.54,-190.1 404.54,-190.1"/>
</g>
<!-- 2 -->
<g id="node4" class="node">
<title>2</title>
<ellipse fill="none" stroke="black" cx="227.04" cy="-162" rx="48.19" ry="18"/>
<text text-anchor="middle" x="227.04" y="-158.3" font-family="Times,serif" font-size="14.00">Categorify</text>
</g>
<!-- 2&#45;&gt;6 -->
<g id="edge5" class="edge">
<title>2&#45;&gt;6</title>
<path fill="none" stroke="black" d="M258.55,-148.32C289.83,-135.74 337.54,-116.54 369,-103.89"/>
<polygon fill="black" stroke="black" points="370.64,-107 378.61,-100.02 368.02,-100.51 370.64,-107"/>
</g>
<!-- 5 -->
<g id="node5" class="node">
<title>5</title>
<ellipse fill="none" stroke="black" cx="154.04" cy="-234" rx="154.07" ry="18"/>
<text text-anchor="middle" x="154.04" y="-230.3" font-family="Times,serif" font-size="14.00">input cols=[Store, DayOfWeek, Year...]</text>
</g>
<!-- 5&#45;&gt;2 -->
<g id="edge2" class="edge">
<title>5&#45;&gt;2</title>
<path fill="none" stroke="black" d="M171.71,-216.05C180.99,-207.16 192.51,-196.11 202.62,-186.41"/>
<polygon fill="black" stroke="black" points="205.24,-188.75 210.03,-179.31 200.39,-183.7 205.24,-188.75"/>
</g>
<!-- 7 -->
<g id="node6" class="node">
<title>7</title>
<ellipse fill="none" stroke="black" cx="546.04" cy="-306" rx="297.05" ry="18"/>
<text text-anchor="middle" x="546.04" y="-302.3" font-family="Times,serif" font-size="14.00">input cols=[CompetitionDistance, Max_TemperatureC, Mean_TemperatureC...]</text>
</g>
<!-- 7&#45;&gt;3 -->
<g id="edge3" class="edge">
<title>7&#45;&gt;3</title>
<path fill="none" stroke="black" d="M546.04,-287.7C546.04,-279.98 546.04,-270.71 546.04,-262.11"/>
<polygon fill="black" stroke="black" points="549.54,-262.1 546.04,-252.1 542.54,-262.1 549.54,-262.1"/>
</g>
<!-- 4&#45;&gt;6 -->
<g id="edge7" class="edge">
<title>4&#45;&gt;6</title>
<path fill="none" stroke="black" d="M401.04,-143.7C401.04,-135.98 401.04,-126.71 401.04,-118.11"/>
<polygon fill="black" stroke="black" points="404.54,-118.1 401.04,-108.1 397.54,-118.1 404.54,-118.1"/>
</g>
<!-- 8 -->
<g id="node9" class="node">
<title>8</title>
<ellipse fill="none" stroke="black" cx="401.04" cy="-18" rx="158.67" ry="18"/>
<text text-anchor="middle" x="401.04" y="-14.3" font-family="Times,serif" font-size="14.00">output cols=[Store, DayOfWeek, Year...]</text>
</g>
<!-- 6&#45;&gt;8 -->
<g id="edge8" class="edge">
<title>6&#45;&gt;8</title>
<path fill="none" stroke="black" d="M401.04,-71.7C401.04,-63.98 401.04,-54.71 401.04,-46.11"/>
<polygon fill="black" stroke="black" points="404.54,-46.1 401.04,-36.1 397.54,-46.1 404.54,-46.1"/>
</g>
</g>
</svg>
