<?xml version="1.0" encoding="UTF-8" standalone="no"?>
<!DOCTYPE svg PUBLIC "-//W3C//DTD SVG 1.1//EN"
 "http://www.w3.org/Graphics/SVG/1.1/DTD/svg11.dtd">
<!-- Generated by graphviz version 2.42.3 (20191010.1750)
 -->
<!-- Title: %3 Pages: 1 -->
<svg width="1132pt" height="476pt"
 viewBox="0.00 0.00 1132.28 476.00" xmlns="http://www.w3.org/2000/svg" xmlns:xlink="http://www.w3.org/1999/xlink">
<g id="graph0" class="graph" transform="scale(1 1) rotate(0) translate(4 472)">
<title>%3</title>
<polygon fill="white" stroke="transparent" points="-4,4 -4,-472 1128.28,-472 1128.28,4 -4,4"/>
<!-- 0 -->
<g id="node1" class="node">
<title>0</title>
<ellipse fill="none" stroke="black" cx="883.04" cy="-306" rx="83.39" ry="18"/>
<text text-anchor="middle" x="883.04" y="-302.3" font-family="Times,serif" font-size="14.00">DaysSincePublished</text>
</g>
<!-- 1 -->
<g id="node4" class="node">
<title>1</title>
<ellipse fill="none" stroke="black" cx="857.04" cy="-234" rx="50.09" ry="18"/>
<text text-anchor="middle" x="857.04" y="-230.3" font-family="Times,serif" font-size="14.00">FillMedian</text>
</g>
<!-- 0&#45;&gt;1 -->
<g id="edge3" class="edge">
<title>0&#45;&gt;1</title>
<path fill="none" stroke="black" d="M876.61,-287.7C873.69,-279.81 870.15,-270.3 866.9,-261.55"/>
<polygon fill="black" stroke="black" points="870.16,-260.26 863.39,-252.1 863.59,-262.7 870.16,-260.26"/>
</g>
<!-- 5 -->
<g id="node2" class="node">
<title>5</title>
<ellipse fill="none" stroke="black" cx="736.04" cy="-378" rx="181.97" ry="18"/>
<text text-anchor="middle" x="736.04" y="-374.3" font-family="Times,serif" font-size="14.00">input cols=[publish_time, publish_time_promo]</text>
</g>
<!-- 5&#45;&gt;0 -->
<g id="edge1" class="edge">
<title>5&#45;&gt;0</title>
<path fill="none" stroke="black" d="M771.25,-360.23C792.21,-350.25 818.93,-337.53 840.99,-327.02"/>
<polygon fill="black" stroke="black" points="842.61,-330.13 850.13,-322.67 839.6,-323.81 842.61,-330.13"/>
</g>
<!-- 9 -->
<g id="node3" class="node">
<title>9</title>
<ellipse fill="none" stroke="black" cx="1030.04" cy="-378" rx="94.48" ry="18"/>
<text text-anchor="middle" x="1030.04" y="-374.3" font-family="Times,serif" font-size="14.00">input cols=[timestamp]</text>
</g>
<!-- 9&#45;&gt;0 -->
<g id="edge2" class="edge">
<title>9&#45;&gt;0</title>
<path fill="none" stroke="black" d="M996.68,-361.12C975.39,-350.98 947.61,-337.75 924.85,-326.91"/>
<polygon fill="black" stroke="black" points="926.29,-323.72 915.76,-322.58 923.28,-330.04 926.29,-323.72"/>
</g>
<!-- 11 -->
<g id="node13" class="node">
<title>11</title>
<ellipse fill="none" stroke="black" cx="805.04" cy="-162" rx="36" ry="18"/>
<text text-anchor="middle" x="805.04" y="-158.3" font-family="Times,serif" font-size="14.00">LogOp</text>
</g>
<!-- 1&#45;&gt;11 -->
<g id="edge8" class="edge">
<title>1&#45;&gt;11</title>
<path fill="none" stroke="black" d="M844.72,-216.41C838.21,-207.66 830.11,-196.75 822.93,-187.08"/>
<polygon fill="black" stroke="black" points="825.69,-184.93 816.92,-178.99 820.07,-189.1 825.69,-184.93"/>
</g>
<!-- 2 -->
<g id="node5" class="node">
<title>2</title>
<ellipse fill="none" stroke="black" cx="102.04" cy="-450" rx="102.08" ry="18"/>
<text text-anchor="middle" x="102.04" y="-446.3" font-family="Times,serif" font-size="14.00">input cols=[geo_location]</text>
</g>
<!-- 13 -->
<g id="node8" class="node">
<title>13</title>
<ellipse fill="none" stroke="black" cx="201.04" cy="-234" rx="27" ry="18"/>
<text text-anchor="middle" x="201.04" y="-230.3" font-family="Times,serif" font-size="14.00">+</text>
</g>
<!-- 2&#45;&gt;13 -->
<g id="edge10" class="edge">
<title>2&#45;&gt;13</title>
<path fill="none" stroke="black" d="M74.41,-432.43C62.06,-423.38 48.78,-410.95 42.04,-396 31.74,-373.15 49.28,-292.57 53.04,-288 80.33,-254.88 129.93,-242.45 164.14,-237.79"/>
<polygon fill="black" stroke="black" points="164.71,-241.25 174.22,-236.58 163.87,-234.3 164.71,-241.25"/>
</g>
<!-- 8 -->
<g id="node11" class="node">
<title>8</title>
<ellipse fill="none" stroke="black" cx="102.04" cy="-378" rx="50.89" ry="18"/>
<text text-anchor="middle" x="102.04" y="-374.3" font-family="Times,serif" font-size="14.00">LambdaOp</text>
</g>
<!-- 2&#45;&gt;8 -->
<g id="edge7" class="edge">
<title>2&#45;&gt;8</title>
<path fill="none" stroke="black" d="M102.04,-431.7C102.04,-423.98 102.04,-414.71 102.04,-406.11"/>
<polygon fill="black" stroke="black" points="105.54,-406.1 102.04,-396.1 98.54,-406.1 105.54,-406.1"/>
</g>
<!-- 12 -->
<g id="node14" class="node">
<title>12</title>
<ellipse fill="none" stroke="black" cx="221.04" cy="-378" rx="50.89" ry="18"/>
<text text-anchor="middle" x="221.04" y="-374.3" font-family="Times,serif" font-size="14.00">LambdaOp</text>
</g>
<!-- 2&#45;&gt;12 -->
<g id="edge9" class="edge">
<title>2&#45;&gt;12</title>
<path fill="none" stroke="black" d="M129.94,-432.59C146.91,-422.61 168.7,-409.79 186.72,-399.19"/>
<polygon fill="black" stroke="black" points="188.9,-401.97 195.75,-393.88 185.35,-395.93 188.9,-401.97"/>
</g>
<!-- 3 -->
<g id="node6" class="node">
<title>3</title>
<ellipse fill="none" stroke="black" cx="430.04" cy="-306" rx="170.07" ry="18"/>
<text text-anchor="middle" x="430.04" y="-302.3" font-family="Times,serif" font-size="14.00">input cols=[ad_id, document_id, platform...]</text>
</g>
<!-- 3&#45;&gt;13 -->
<g id="edge13" class="edge">
<title>3&#45;&gt;13</title>
<path fill="none" stroke="black" d="M377.22,-288.85C333.51,-275.49 272.71,-256.91 235.17,-245.43"/>
<polygon fill="black" stroke="black" points="235.82,-241.97 225.23,-242.39 233.77,-248.67 235.82,-241.97"/>
</g>
<!-- 6 -->
<g id="node9" class="node">
<title>6</title>
<ellipse fill="none" stroke="black" cx="456.04" cy="-234" rx="67.69" ry="18"/>
<text text-anchor="middle" x="456.04" y="-230.3" font-family="Times,serif" font-size="14.00">TargetEncoding</text>
</g>
<!-- 3&#45;&gt;6 -->
<g id="edge5" class="edge">
<title>3&#45;&gt;6</title>
<path fill="none" stroke="black" d="M436.47,-287.7C439.4,-279.81 442.93,-270.3 446.18,-261.55"/>
<polygon fill="black" stroke="black" points="449.49,-262.7 449.69,-252.1 442.92,-260.26 449.49,-262.7"/>
</g>
<!-- 4 -->
<g id="node7" class="node">
<title>4</title>
<ellipse fill="none" stroke="black" cx="304.04" cy="-162" rx="48.19" ry="18"/>
<text text-anchor="middle" x="304.04" y="-158.3" font-family="Times,serif" font-size="14.00">Categorify</text>
</g>
<!-- 15 -->
<g id="node17" class="node">
<title>15</title>
<ellipse fill="none" stroke="black" cx="511.04" cy="-90" rx="27" ry="18"/>
<text text-anchor="middle" x="511.04" y="-86.3" font-family="Times,serif" font-size="14.00">+</text>
</g>
<!-- 4&#45;&gt;15 -->
<g id="edge16" class="edge">
<title>4&#45;&gt;15</title>
<path fill="none" stroke="black" d="M338.69,-149.28C377.46,-136.17 439.83,-115.08 477.96,-102.19"/>
<polygon fill="black" stroke="black" points="479.21,-105.46 487.56,-98.94 476.97,-98.83 479.21,-105.46"/>
</g>
<!-- 13&#45;&gt;4 -->
<g id="edge4" class="edge">
<title>13&#45;&gt;4</title>
<path fill="none" stroke="black" d="M219.46,-220.49C234.34,-210.37 255.61,-195.92 273.1,-184.03"/>
<polygon fill="black" stroke="black" points="275.54,-186.6 281.84,-178.09 271.61,-180.81 275.54,-186.6"/>
</g>
<!-- 6&#45;&gt;15 -->
<g id="edge17" class="edge">
<title>6&#45;&gt;15</title>
<path fill="none" stroke="black" d="M457.74,-215.67C459.99,-197.29 464.93,-167.69 475.04,-144 479.43,-133.72 485.92,-123.34 492.19,-114.53"/>
<polygon fill="black" stroke="black" points="495.15,-116.41 498.29,-106.3 489.52,-112.24 495.15,-116.41"/>
</g>
<!-- 7 -->
<g id="node10" class="node">
<title>7</title>
<ellipse fill="none" stroke="black" cx="700.04" cy="-306" rx="81.79" ry="18"/>
<text text-anchor="middle" x="700.04" y="-302.3" font-family="Times,serif" font-size="14.00">input cols=[clicked]</text>
</g>
<!-- 7&#45;&gt;6 -->
<g id="edge6" class="edge">
<title>7&#45;&gt;6</title>
<path fill="none" stroke="black" d="M652.42,-291.34C611.5,-279.6 552.54,-262.68 509.91,-250.45"/>
<polygon fill="black" stroke="black" points="510.84,-247.08 500.26,-247.69 508.91,-253.81 510.84,-247.08"/>
</g>
<!-- 14 -->
<g id="node15" class="node">
<title>14</title>
<ellipse fill="none" stroke="black" cx="102.04" cy="-306" rx="40.09" ry="18"/>
<text text-anchor="middle" x="102.04" y="-302.3" font-family="Times,serif" font-size="14.00">Rename</text>
</g>
<!-- 8&#45;&gt;14 -->
<g id="edge14" class="edge">
<title>8&#45;&gt;14</title>
<path fill="none" stroke="black" d="M102.04,-359.7C102.04,-351.98 102.04,-342.71 102.04,-334.11"/>
<polygon fill="black" stroke="black" points="105.54,-334.1 102.04,-324.1 98.54,-334.1 105.54,-334.1"/>
</g>
<!-- 10 -->
<g id="node12" class="node">
<title>10</title>
<ellipse fill="none" stroke="black" cx="566.04" cy="-162" rx="81.79" ry="18"/>
<text text-anchor="middle" x="566.04" y="-158.3" font-family="Times,serif" font-size="14.00">input cols=[clicked]</text>
</g>
<!-- 10&#45;&gt;15 -->
<g id="edge18" class="edge">
<title>10&#45;&gt;15</title>
<path fill="none" stroke="black" d="M552.73,-144.05C545.74,-135.17 537.08,-124.14 529.46,-114.45"/>
<polygon fill="black" stroke="black" points="532.04,-112.06 523.11,-106.36 526.53,-116.38 532.04,-112.06"/>
</g>
<!-- 11&#45;&gt;15 -->
<g id="edge15" class="edge">
<title>11&#45;&gt;15</title>
<path fill="none" stroke="black" d="M773.3,-153.44C717.83,-140.24 603.69,-113.06 546.02,-99.33"/>
<polygon fill="black" stroke="black" points="546.81,-95.92 536.27,-97.01 545.19,-102.73 546.81,-95.92"/>
</g>
<!-- 16 -->
<g id="node16" class="node">
<title>16</title>
<ellipse fill="none" stroke="black" cx="201.04" cy="-306" rx="40.09" ry="18"/>
<text text-anchor="middle" x="201.04" y="-302.3" font-family="Times,serif" font-size="14.00">Rename</text>
</g>
<!-- 12&#45;&gt;16 -->
<g id="edge19" class="edge">
<title>12&#45;&gt;16</title>
<path fill="none" stroke="black" d="M216.2,-360.05C213.97,-352.26 211.28,-342.82 208.78,-334.08"/>
<polygon fill="black" stroke="black" points="212.09,-332.93 205.98,-324.28 205.36,-334.85 212.09,-332.93"/>
</g>
<!-- 14&#45;&gt;13 -->
<g id="edge11" class="edge">
<title>14&#45;&gt;13</title>
<path fill="none" stroke="black" d="M122.55,-290.5C137.65,-279.82 158.31,-265.21 174.64,-253.66"/>
<polygon fill="black" stroke="black" points="177.07,-256.24 183.21,-247.61 173.02,-250.52 177.07,-256.24"/>
</g>
<!-- 16&#45;&gt;13 -->
<g id="edge12" class="edge">
<title>16&#45;&gt;13</title>
<path fill="none" stroke="black" d="M201.04,-287.7C201.04,-279.98 201.04,-270.71 201.04,-262.11"/>
<polygon fill="black" stroke="black" points="204.54,-262.1 201.04,-252.1 197.54,-262.1 204.54,-262.1"/>
</g>
<!-- 17 -->
<g id="node18" class="node">
<title>17</title>
<ellipse fill="none" stroke="black" cx="511.04" cy="-18" rx="365.84" ry="18"/>
<text text-anchor="middle" x="511.04" y="-14.3" font-family="Times,serif" font-size="14.00">output cols=[publish_time_since_published, publish_time_promo_since_published, geo_location...]</text>
</g>
<!-- 15&#45;&gt;17 -->
<g id="edge20" class="edge">
<title>15&#45;&gt;17</title>
<path fill="none" stroke="black" d="M511.04,-71.7C511.04,-63.98 511.04,-54.71 511.04,-46.11"/>
<polygon fill="black" stroke="black" points="514.54,-46.1 511.04,-36.1 507.54,-46.1 514.54,-46.1"/>
</g>
</g>
</svg>
