<?xml version="1.0" encoding="UTF-8" standalone="no"?>
<!DOCTYPE svg PUBLIC "-//W3C//DTD SVG 1.1//EN"
 "http://www.w3.org/Graphics/SVG/1.1/DTD/svg11.dtd">
<!-- Generated by graphviz version 2.42.3 (20191010.1750)
 -->
<!-- Title: %3 Pages: 1 -->
<svg width="488pt" height="476pt"
 viewBox="0.00 0.00 488.18 476.00" xmlns="http://www.w3.org/2000/svg" xmlns:xlink="http://www.w3.org/1999/xlink">
<g id="graph0" class="graph" transform="scale(1 1) rotate(0) translate(4 472)">
<title>%3</title>
<polygon fill="white" stroke="transparent" points="-4,4 -4,-472 484.18,-472 484.18,4 -4,4"/>
<!-- 0 -->
<g id="node1" class="node">
<title>0</title>
<ellipse fill="none" stroke="black" cx="384.64" cy="-234" rx="36" ry="18"/>
<text text-anchor="middle" x="384.64" y="-230.3" font-family="Times,serif" font-size="14.00">LogOp</text>
</g>
<!-- 2 -->
<g id="node5" class="node">
<title>2</title>
<ellipse fill="none" stroke="black" cx="384.64" cy="-162" rx="48.19" ry="18"/>
<text text-anchor="middle" x="384.64" y="-158.3" font-family="Times,serif" font-size="14.00">Normalize</text>
</g>
<!-- 0&#45;&gt;2 -->
<g id="edge5" class="edge">
<title>0&#45;&gt;2</title>
<path fill="none" stroke="black" d="M384.64,-215.7C384.64,-207.98 384.64,-198.71 384.64,-190.11"/>
<polygon fill="black" stroke="black" points="388.14,-190.1 384.64,-180.1 381.14,-190.1 388.14,-190.1"/>
</g>
<!-- 6 -->
<g id="node2" class="node">
<title>6</title>
<ellipse fill="none" stroke="black" cx="384.64" cy="-306" rx="27" ry="18"/>
<text text-anchor="middle" x="384.64" y="-302.3" font-family="Times,serif" font-size="14.00">Clip</text>
</g>
<!-- 6&#45;&gt;0 -->
<g id="edge1" class="edge">
<title>6&#45;&gt;0</title>
<path fill="none" stroke="black" d="M384.64,-287.7C384.64,-279.98 384.64,-270.71 384.64,-262.11"/>
<polygon fill="black" stroke="black" points="388.14,-262.1 384.64,-252.1 381.14,-262.1 388.14,-262.1"/>
</g>
<!-- 1 -->
<g id="node3" class="node">
<title>1</title>
<ellipse fill="none" stroke="black" cx="244.64" cy="-90" rx="27" ry="18"/>
<text text-anchor="middle" x="244.64" y="-86.3" font-family="Times,serif" font-size="14.00">+</text>
</g>
<!-- 9 -->
<g id="node10" class="node">
<title>9</title>
<ellipse fill="none" stroke="black" cx="244.64" cy="-18" rx="108.58" ry="18"/>
<text text-anchor="middle" x="244.64" y="-14.3" font-family="Times,serif" font-size="14.00">output cols=[C1, C2, C3...]</text>
</g>
<!-- 1&#45;&gt;9 -->
<g id="edge9" class="edge">
<title>1&#45;&gt;9</title>
<path fill="none" stroke="black" d="M244.64,-71.7C244.64,-63.98 244.64,-54.71 244.64,-46.11"/>
<polygon fill="black" stroke="black" points="248.14,-46.1 244.64,-36.1 241.14,-46.1 248.14,-46.1"/>
</g>
<!-- 5 -->
<g id="node4" class="node">
<title>5</title>
<ellipse fill="none" stroke="black" cx="104.64" cy="-162" rx="48.19" ry="18"/>
<text text-anchor="middle" x="104.64" y="-158.3" font-family="Times,serif" font-size="14.00">Categorify</text>
</g>
<!-- 5&#45;&gt;1 -->
<g id="edge2" class="edge">
<title>5&#45;&gt;1</title>
<path fill="none" stroke="black" d="M132.3,-147.17C155.94,-135.35 189.89,-118.37 214.28,-106.18"/>
<polygon fill="black" stroke="black" points="216.06,-109.21 223.43,-101.6 212.93,-102.94 216.06,-109.21"/>
</g>
<!-- 2&#45;&gt;1 -->
<g id="edge3" class="edge">
<title>2&#45;&gt;1</title>
<path fill="none" stroke="black" d="M356.98,-147.17C333.34,-135.35 299.39,-118.37 275,-106.18"/>
<polygon fill="black" stroke="black" points="276.36,-102.94 265.85,-101.6 273.23,-109.21 276.36,-102.94"/>
</g>
<!-- 7 -->
<g id="node6" class="node">
<title>7</title>
<ellipse fill="none" stroke="black" cx="244.64" cy="-162" rx="73.39" ry="18"/>
<text text-anchor="middle" x="244.64" y="-158.3" font-family="Times,serif" font-size="14.00">input cols=[label]</text>
</g>
<!-- 7&#45;&gt;1 -->
<g id="edge4" class="edge">
<title>7&#45;&gt;1</title>
<path fill="none" stroke="black" d="M244.64,-143.7C244.64,-135.98 244.64,-126.71 244.64,-118.11"/>
<polygon fill="black" stroke="black" points="248.14,-118.1 244.64,-108.1 241.14,-118.1 248.14,-118.1"/>
</g>
<!-- 3 -->
<g id="node7" class="node">
<title>3</title>
<ellipse fill="none" stroke="black" cx="384.64" cy="-378" rx="51.99" ry="18"/>
<text text-anchor="middle" x="384.64" y="-374.3" font-family="Times,serif" font-size="14.00">FillMissing</text>
</g>
<!-- 3&#45;&gt;6 -->
<g id="edge8" class="edge">
<title>3&#45;&gt;6</title>
<path fill="none" stroke="black" d="M384.64,-359.7C384.64,-351.98 384.64,-342.71 384.64,-334.11"/>
<polygon fill="black" stroke="black" points="388.14,-334.1 384.64,-324.1 381.14,-334.1 388.14,-334.1"/>
</g>
<!-- 8 -->
<g id="node8" class="node">
<title>8</title>
<ellipse fill="none" stroke="black" cx="384.64" cy="-450" rx="95.58" ry="18"/>
<text text-anchor="middle" x="384.64" y="-446.3" font-family="Times,serif" font-size="14.00">input cols=[I1, I2, I3...]</text>
</g>
<!-- 8&#45;&gt;3 -->
<g id="edge6" class="edge">
<title>8&#45;&gt;3</title>
<path fill="none" stroke="black" d="M384.64,-431.7C384.64,-423.98 384.64,-414.71 384.64,-406.11"/>
<polygon fill="black" stroke="black" points="388.14,-406.1 384.64,-396.1 381.14,-406.1 388.14,-406.1"/>
</g>
<!-- 4 -->
<g id="node9" class="node">
<title>4</title>
<ellipse fill="none" stroke="black" cx="104.64" cy="-234" rx="104.78" ry="18"/>
<text text-anchor="middle" x="104.64" y="-230.3" font-family="Times,serif" font-size="14.00">input cols=[C1, C2, C3...]</text>
</g>
<!-- 4&#45;&gt;5 -->
<g id="edge7" class="edge">
<title>4&#45;&gt;5</title>
<path fill="none" stroke="black" d="M104.64,-215.7C104.64,-207.98 104.64,-198.71 104.64,-190.11"/>
<polygon fill="black" stroke="black" points="108.14,-190.1 104.64,-180.1 101.14,-190.1 108.14,-190.1"/>
</g>
</g>
</svg>
